<?xml version="1.0" encoding="iso-8859-1"?>
<!-- Generator: Adobe Illustrator 17.1.0, SVG Export Plug-In . SVG Version: 6.00 Build 0)  -->
<!DOCTYPE svg PUBLIC "-//W3C//DTD SVG 1.1//EN" "http://www.w3.org/Graphics/SVG/1.1/DTD/svg11.dtd">
<svg version="1.1" id="Capa_1" xmlns="http://www.w3.org/2000/svg" xmlns:xlink="http://www.w3.org/1999/xlink" x="0px" y="0px"
	 viewBox="0 0 511 511" style="enable-background:new 0 0 511 511;" xml:space="preserve">
<g>
	<path d="M471.5,136H319V55.5c0-2.758-1.513-5.293-3.941-6.602c-2.427-1.309-5.377-1.18-7.681,0.336l-304,200
		C1.27,250.622,0,252.976,0,255.5c0,2.524,1.27,4.878,3.378,6.266l304,200c1.247,0.82,2.683,1.234,4.123,1.234
		c1.221,0,2.445-0.298,3.559-0.898c2.428-1.309,3.941-3.844,3.941-6.602V375h152.5c21.78,0,39.5-17.72,39.5-39.5v-160
		C511,153.72,493.28,136,471.5,136z M496,335.5c0,13.509-10.991,24.5-24.5,24.5h-160c-4.142,0-7.5,3.358-7.5,7.5v74.088
		L21.146,255.5L304,69.412V143.5c0,4.142,3.358,7.5,7.5,7.5h160c13.509,0,24.5,10.991,24.5,24.5V335.5z"/>
	<path d="M471.5,168h-72c-4.142,0-7.5,3.358-7.5,7.5s3.358,7.5,7.5,7.5h72c4.142,0,7.5-3.358,7.5-7.5S475.642,168,471.5,168z"/>
	<path d="M367.5,168h-16c-4.142,0-7.5,3.358-7.5,7.5s3.358,7.5,7.5,7.5h16c4.142,0,7.5-3.358,7.5-7.5S371.642,168,367.5,168z"/>
	<path d="M203.645,337.261l-85.178-56.038c-3.459-2.275-8.111-1.317-10.388,2.144c-2.276,3.461-1.317,8.111,2.144,10.388
		l85.178,56.038c1.27,0.836,2.7,1.235,4.115,1.235c2.439,0,4.832-1.188,6.272-3.379
		C208.065,344.188,207.105,339.538,203.645,337.261z"/>
	<path d="M91.619,263.559l-15.997-10.524c-3.458-2.275-8.11-1.317-10.388,2.144c-2.276,3.461-1.317,8.111,2.144,10.388
		l15.997,10.524c1.27,0.835,2.7,1.235,4.115,1.235c2.439,0,4.832-1.188,6.272-3.378C96.039,270.486,95.079,265.836,91.619,263.559z"
		/>
</g>
<g>
</g>
<g>
</g>
<g>
</g>
<g>
</g>
<g>
</g>
<g>
</g>
<g>
</g>
<g>
</g>
<g>
</g>
<g>
</g>
<g>
</g>
<g>
</g>
<g>
</g>
<g>
</g>
<g>
</g>
</svg>
