<svg id="Capa_1" enable-background="new 0 0 512.132 512.132" height="512" viewBox="0 0 512.132 512.132" width="512" xmlns="http://www.w3.org/2000/svg"><g><path d="m256.066 421.13h-73.488c6.951 34.232 37.203 60 73.488 60s66.537-25.768 73.488-60z" fill="#e6455a"/><path d="m329.554 421.13h-73.488v60c36.284 0 66.537-25.768 73.488-60z" fill="#b32437"/><path d="m456.134 6.911-56.007 31.211-39.032 121.867v63.691l100.937 25.765c2.63-13.94 72.143-125.338-5.898-242.534z" fill="#352c2c"/><path d="m56.098 7.011 55.907 31.111 39.032 121.867v63.691l-100.937 25.765c-2.63-13.94-72.043-125.238 5.998-242.434z" fill="#463f3f"/><path d="m50.1 249.445c13.387-25.981 70.937-85.765 70.937-85.765l85.441 61.273-64.94 63.884 9.529 162.294h-45c-24.814 0-45 21.186-45 46 0 6.064-3.647 11.543-9.258 13.857-5.528 2.307-12.018 1.078-16.348-3.252-21.856-21.856-35.395-53.119-35.395-84.028 0-62.018 18.743-122.626 50.034-174.263z" fill="#5b5555"/><path d="m462.032 249.445c-13.387-25.981-70.937-85.765-70.937-85.765l-85.441 61.273 64.94 63.884-9.529 162.294h45c24.814 0 45 21.186 45 46 0 6.064 3.647 11.543 9.258 13.857 5.528 2.307 12.018 1.078 16.348-3.252 21.855-21.855 35.395-53.119 35.395-84.027 0-62.019-18.743-122.627-50.034-174.264z" fill="#463f3f"/><path d="m409.186 284.368c22.411-39.089 10.207-89.451-18.091-120.688v-3.691c0-53.578 23.071-113.002 65.039-153.078-4.408-4.839-9.169-8.747-17.285-6.004-46.215 15.402-93.162 53.259-126.118 119.224l-46.011 28.588 1.562 259.043 32.784 43.369h60c49.509 0 90-40.615 90-90 0-30.968-16.245-60.488-41.88-76.763z" fill="#5b5555"/><path d="m102.946 284.368c-22.411-39.089-10.207-89.451 18.091-120.688v-3.691c0-54.52-23.785-113.679-64.939-152.978 4.408-4.839 9.069-8.847 17.185-6.104 46.214 15.402 93.162 53.258 126.117 119.223l46.011 28.588-1.562 259.043-32.784 43.369h-60c-49.509 0-90-40.615-90-90 .001-30.967 16.246-60.487 41.881-76.762z" fill="#766e6e"/><path d="m321.935 347.278c-21.564-30.222-43.369-56.884-43.369-92.148 0-39.034 11.184-89.002 34.166-135h-56.666-56.666c22.982 45.998 34.166 95.966 34.166 135 0 35.264-21.804 61.927-43.369 92.148-12.589 17.639-24.131 36.209-24.131 58.852 0 24.814 20.186 45 45 45 23.989 0 45-20.057 45-45 0 24.943 21.011 45 45 45 24.814 0 45-20.186 45-45 0-22.643-11.543-41.213-24.131-58.852z" fill="#fff5f5"/><g><path d="m301.066 451.13c24.814 0 45-20.186 45-45 0-22.643-11.543-41.213-24.131-58.852-21.564-30.222-43.369-56.884-43.369-92.148 0-39.034 11.184-89.002 34.166-135h-56.666v286c0 24.943 21.011 45 45 45z" fill="#efe2dd"/></g><path d="m321.935 347.278c-2.082-3.096-4.334-6.216-6.577-9.327.139.192.269.474.408.665 2.076 2.849 4.107 5.773 6.169 8.662z" fill="none"/><g><path d="m263.566 346.15h-7.5-7.5c-23.851-.353-37.5 5.74-37.5 29.98 0 24.814 20.186 45 45 45s45-20.186 45-45c0-24.397-13.652-30.126-37.5-29.98z" fill="#463f3f"/><path d="m301.066 376.13c0-24.397-13.652-30.126-37.5-29.98h-7.5v74.98c24.814 0 45-20.185 45-45z" fill="#352c2c"/></g><circle cx="346.066" cy="255.13" fill="#352c2c" r="15"/><circle cx="166.066" cy="255.13" fill="#463f3f" r="15"/></g></svg>